<mxfile host="app.diagrams.net" modified="2024-05-08T19:13:08.575Z" agent="Mozilla/5.0 (Macintosh; Intel Mac OS X 10_15_7) AppleWebKit/605.1.15 (KHTML, like Gecko) Version/15.6.1 Safari/605.1.15" etag="9u9cgSRR6XE9ByWC1pWC" version="24.3.1" type="device">
  <diagram name="Page-1" id="umnk6wjwQDd8MSdTkEfL">
    <mxGraphModel dx="1319" dy="865" grid="1" gridSize="10" guides="1" tooltips="1" connect="1" arrows="1" fold="1" page="1" pageScale="1" pageWidth="827" pageHeight="1169" math="0" shadow="0">
      <root>
        <mxCell id="0" />
        <mxCell id="1" parent="0" />
        <mxCell id="-3zK776sPMQ78dFwDldj-16" value="Отправитель" style="rounded=0;whiteSpace=wrap;html=1;align=left;" vertex="1" parent="1">
          <mxGeometry x="30" y="250" width="840" height="230" as="geometry" />
        </mxCell>
        <mxCell id="-3zK776sPMQ78dFwDldj-13" value="CA" style="rounded=0;whiteSpace=wrap;html=1;align=left;" vertex="1" parent="1">
          <mxGeometry x="30" y="20" width="840" height="230" as="geometry" />
        </mxCell>
        <mxCell id="-3zK776sPMQ78dFwDldj-18" style="edgeStyle=orthogonalEdgeStyle;rounded=0;orthogonalLoop=1;jettySize=auto;html=1;exitX=1;exitY=0.5;exitDx=0;exitDy=0;entryX=0;entryY=0.5;entryDx=0;entryDy=0;" edge="1" parent="1" source="-3zK776sPMQ78dFwDldj-1" target="-3zK776sPMQ78dFwDldj-2">
          <mxGeometry relative="1" as="geometry" />
        </mxCell>
        <mxCell id="-3zK776sPMQ78dFwDldj-1" value="начало" style="ellipse;whiteSpace=wrap;html=1;aspect=fixed;" vertex="1" parent="1">
          <mxGeometry x="60" y="95" width="80" height="80" as="geometry" />
        </mxCell>
        <mxCell id="-3zK776sPMQ78dFwDldj-19" style="edgeStyle=orthogonalEdgeStyle;rounded=0;orthogonalLoop=1;jettySize=auto;html=1;entryX=0;entryY=0.5;entryDx=0;entryDy=0;" edge="1" parent="1" source="-3zK776sPMQ78dFwDldj-2" target="-3zK776sPMQ78dFwDldj-6">
          <mxGeometry relative="1" as="geometry" />
        </mxCell>
        <mxCell id="-3zK776sPMQ78dFwDldj-2" value="Setup&lt;div&gt;генерация &amp;nbsp;параметров&lt;/div&gt;" style="rounded=0;whiteSpace=wrap;html=1;" vertex="1" parent="1">
          <mxGeometry x="170" y="102.5" width="120" height="65" as="geometry" />
        </mxCell>
        <mxCell id="-3zK776sPMQ78dFwDldj-48" value="да" style="edgeStyle=orthogonalEdgeStyle;rounded=0;orthogonalLoop=1;jettySize=auto;html=1;entryX=0;entryY=0.5;entryDx=0;entryDy=0;" edge="1" parent="1" source="-3zK776sPMQ78dFwDldj-6" target="-3zK776sPMQ78dFwDldj-46">
          <mxGeometry relative="1" as="geometry" />
        </mxCell>
        <mxCell id="-3zK776sPMQ78dFwDldj-6" value="пользователь&lt;div&gt;запросил ключ?&lt;/div&gt;" style="rhombus;whiteSpace=wrap;html=1;rounded=0;" vertex="1" parent="1">
          <mxGeometry x="320" y="80" width="140" height="105" as="geometry" />
        </mxCell>
        <mxCell id="-3zK776sPMQ78dFwDldj-29" value="отправка сертификата&lt;div&gt;и приватного ключа&lt;/div&gt;" style="edgeStyle=orthogonalEdgeStyle;rounded=0;orthogonalLoop=1;jettySize=auto;html=1;entryX=0.5;entryY=0;entryDx=0;entryDy=0;" edge="1" parent="1" source="-3zK776sPMQ78dFwDldj-11" target="-3zK776sPMQ78dFwDldj-28">
          <mxGeometry relative="1" as="geometry" />
        </mxCell>
        <mxCell id="-3zK776sPMQ78dFwDldj-11" value="Setup&lt;div&gt;Генерация приватных ключей&lt;/div&gt;" style="rounded=0;whiteSpace=wrap;html=1;" vertex="1" parent="1">
          <mxGeometry x="697" y="100" width="120" height="70" as="geometry" />
        </mxCell>
        <mxCell id="-3zK776sPMQ78dFwDldj-17" value="Получатель" style="rounded=0;whiteSpace=wrap;html=1;align=left;" vertex="1" parent="1">
          <mxGeometry x="30" y="710" width="840" height="230" as="geometry" />
        </mxCell>
        <mxCell id="-3zK776sPMQ78dFwDldj-25" value="нет" style="edgeStyle=orthogonalEdgeStyle;rounded=0;orthogonalLoop=1;jettySize=auto;html=1;exitX=0.5;exitY=1;exitDx=0;exitDy=0;entryX=0;entryY=0.5;entryDx=0;entryDy=0;" edge="1" parent="1" source="-3zK776sPMQ78dFwDldj-6" target="-3zK776sPMQ78dFwDldj-6">
          <mxGeometry relative="1" as="geometry">
            <mxPoint x="360" y="135" as="targetPoint" />
            <Array as="points">
              <mxPoint x="390" y="205" />
              <mxPoint x="310" y="205" />
              <mxPoint x="310" y="133" />
            </Array>
          </mxGeometry>
        </mxCell>
        <mxCell id="-3zK776sPMQ78dFwDldj-40" style="edgeStyle=orthogonalEdgeStyle;rounded=0;orthogonalLoop=1;jettySize=auto;html=1;entryX=1;entryY=0.5;entryDx=0;entryDy=0;" edge="1" parent="1" source="-3zK776sPMQ78dFwDldj-28" target="-3zK776sPMQ78dFwDldj-39">
          <mxGeometry relative="1" as="geometry" />
        </mxCell>
        <mxCell id="-3zK776sPMQ78dFwDldj-28" value="CertifiedUserKeyGen" style="rounded=0;whiteSpace=wrap;html=1;" vertex="1" parent="1">
          <mxGeometry x="687" y="310" width="140" height="70" as="geometry" />
        </mxCell>
        <mxCell id="-3zK776sPMQ78dFwDldj-59" style="edgeStyle=orthogonalEdgeStyle;rounded=0;orthogonalLoop=1;jettySize=auto;html=1;entryX=1;entryY=0.5;entryDx=0;entryDy=0;" edge="1" parent="1" source="-3zK776sPMQ78dFwDldj-31" target="-3zK776sPMQ78dFwDldj-57">
          <mxGeometry relative="1" as="geometry" />
        </mxCell>
        <mxCell id="-3zK776sPMQ78dFwDldj-31" value="CertifiedUserKeyGen" style="rounded=0;whiteSpace=wrap;html=1;" vertex="1" parent="1">
          <mxGeometry x="697" y="785" width="140" height="70" as="geometry" />
        </mxCell>
        <mxCell id="-3zK776sPMQ78dFwDldj-35" value="Прокси-сервер" style="rounded=0;whiteSpace=wrap;html=1;align=left;" vertex="1" parent="1">
          <mxGeometry x="30" y="480" width="840" height="230" as="geometry" />
        </mxCell>
        <mxCell id="-3zK776sPMQ78dFwDldj-36" value="" style="endArrow=classic;html=1;rounded=0;entryX=0.5;entryY=0;entryDx=0;entryDy=0;" edge="1" parent="1" target="-3zK776sPMQ78dFwDldj-31">
          <mxGeometry width="50" height="50" relative="1" as="geometry">
            <mxPoint x="760" y="275" as="sourcePoint" />
            <mxPoint x="710" y="785" as="targetPoint" />
            <Array as="points">
              <mxPoint x="840" y="275" />
              <mxPoint x="840" y="735" />
              <mxPoint x="767" y="735" />
            </Array>
          </mxGeometry>
        </mxCell>
        <mxCell id="-3zK776sPMQ78dFwDldj-42" style="edgeStyle=orthogonalEdgeStyle;rounded=0;orthogonalLoop=1;jettySize=auto;html=1;entryX=1;entryY=0.5;entryDx=0;entryDy=0;" edge="1" parent="1" source="-3zK776sPMQ78dFwDldj-39" target="-3zK776sPMQ78dFwDldj-41">
          <mxGeometry relative="1" as="geometry" />
        </mxCell>
        <mxCell id="-3zK776sPMQ78dFwDldj-52" value="отправка зашифрованных&lt;div&gt;данных на прокси сервер&lt;/div&gt;" style="edgeStyle=orthogonalEdgeStyle;rounded=0;orthogonalLoop=1;jettySize=auto;html=1;" edge="1" parent="1" source="-3zK776sPMQ78dFwDldj-39">
          <mxGeometry relative="1" as="geometry">
            <mxPoint x="299.9999999999998" y="560" as="targetPoint" />
            <Array as="points">
              <mxPoint x="500" y="440" />
              <mxPoint x="301" y="440" />
              <mxPoint x="301" y="560" />
            </Array>
          </mxGeometry>
        </mxCell>
        <mxCell id="-3zK776sPMQ78dFwDldj-39" value="Encrypt&lt;div&gt;Шифрование&lt;/div&gt;&lt;div&gt;данных&lt;/div&gt;" style="rounded=0;whiteSpace=wrap;html=1;" vertex="1" parent="1">
          <mxGeometry x="490" y="310" width="140" height="70" as="geometry" />
        </mxCell>
        <mxCell id="-3zK776sPMQ78dFwDldj-54" value="" style="edgeStyle=orthogonalEdgeStyle;rounded=0;orthogonalLoop=1;jettySize=auto;html=1;" edge="1" parent="1" source="-3zK776sPMQ78dFwDldj-41" target="-3zK776sPMQ78dFwDldj-53">
          <mxGeometry relative="1" as="geometry" />
        </mxCell>
        <mxCell id="-3zK776sPMQ78dFwDldj-41" value="Encrypt&lt;div&gt;Создание решифровочного ключа&lt;/div&gt;" style="rounded=0;whiteSpace=wrap;html=1;" vertex="1" parent="1">
          <mxGeometry x="310" y="310" width="140" height="70" as="geometry" />
        </mxCell>
        <mxCell id="-3zK776sPMQ78dFwDldj-58" value="отправка перешифрованных&lt;div&gt;данных получателю&lt;/div&gt;" style="edgeStyle=orthogonalEdgeStyle;rounded=0;orthogonalLoop=1;jettySize=auto;html=1;entryX=0.5;entryY=0;entryDx=0;entryDy=0;" edge="1" parent="1" source="-3zK776sPMQ78dFwDldj-43" target="-3zK776sPMQ78dFwDldj-57">
          <mxGeometry relative="1" as="geometry" />
        </mxCell>
        <mxCell id="-3zK776sPMQ78dFwDldj-43" value="ReEncrypt&lt;div&gt;Перешифрование&lt;/div&gt;&lt;div&gt;данных&lt;/div&gt;" style="rounded=0;whiteSpace=wrap;html=1;" vertex="1" parent="1">
          <mxGeometry x="230" y="560" width="140" height="70" as="geometry" />
        </mxCell>
        <mxCell id="-3zK776sPMQ78dFwDldj-50" value="нет" style="edgeStyle=orthogonalEdgeStyle;rounded=0;orthogonalLoop=1;jettySize=auto;html=1;exitX=0.5;exitY=0;exitDx=0;exitDy=0;" edge="1" parent="1" source="-3zK776sPMQ78dFwDldj-46">
          <mxGeometry relative="1" as="geometry">
            <mxPoint x="320" y="130" as="targetPoint" />
            <Array as="points">
              <mxPoint x="580" y="63" />
              <mxPoint x="310" y="63" />
            </Array>
          </mxGeometry>
        </mxCell>
        <mxCell id="-3zK776sPMQ78dFwDldj-51" value="да" style="edgeStyle=orthogonalEdgeStyle;rounded=0;orthogonalLoop=1;jettySize=auto;html=1;exitX=1;exitY=0.5;exitDx=0;exitDy=0;entryX=0;entryY=0.5;entryDx=0;entryDy=0;" edge="1" parent="1" source="-3zK776sPMQ78dFwDldj-46" target="-3zK776sPMQ78dFwDldj-11">
          <mxGeometry relative="1" as="geometry" />
        </mxCell>
        <mxCell id="-3zK776sPMQ78dFwDldj-46" value="удалось&amp;nbsp;&lt;div&gt;авторизоваться?&lt;/div&gt;" style="rhombus;whiteSpace=wrap;html=1;rounded=0;" vertex="1" parent="1">
          <mxGeometry x="500" y="82.5" width="160" height="105" as="geometry" />
        </mxCell>
        <mxCell id="-3zK776sPMQ78dFwDldj-53" value="запись ключа&lt;div&gt;в смарт-контракт&lt;/div&gt;" style="whiteSpace=wrap;html=1;rounded=0;" vertex="1" parent="1">
          <mxGeometry x="140" y="315" width="120" height="60" as="geometry" />
        </mxCell>
        <mxCell id="-3zK776sPMQ78dFwDldj-57" value="Decrypt&lt;div&gt;Расшифровка данных&lt;/div&gt;" style="rounded=0;whiteSpace=wrap;html=1;" vertex="1" parent="1">
          <mxGeometry x="230" y="785" width="140" height="70" as="geometry" />
        </mxCell>
        <mxCell id="-3zK776sPMQ78dFwDldj-62" style="edgeStyle=orthogonalEdgeStyle;rounded=0;orthogonalLoop=1;jettySize=auto;html=1;entryX=1;entryY=0.5;entryDx=0;entryDy=0;" edge="1" parent="1" source="-3zK776sPMQ78dFwDldj-61" target="-3zK776sPMQ78dFwDldj-43">
          <mxGeometry relative="1" as="geometry" />
        </mxCell>
        <mxCell id="-3zK776sPMQ78dFwDldj-61" value="ReEncrypt&lt;div&gt;Получение ключа&lt;/div&gt;&lt;div&gt;решифрования из смарт-контракта&lt;/div&gt;" style="rounded=0;whiteSpace=wrap;html=1;" vertex="1" parent="1">
          <mxGeometry x="430" y="560" width="140" height="70" as="geometry" />
        </mxCell>
      </root>
    </mxGraphModel>
  </diagram>
</mxfile>
